<?xml version="1.0" encoding="iso-8859-1"?>
<!-- Uploaded to: SVG Repo, www.svgrepo.com, Generator: SVG Repo Mixer Tools -->
<svg height="800px" width="800px" version="1.1" id="Layer_1" xmlns="http://www.w3.org/2000/svg" xmlns:xlink="http://www.w3.org/1999/xlink" 
	 viewBox="0 0 512 512" xml:space="preserve">
<g transform="translate(1 1)">
	<path style="fill:#FFDD09;" d="M461.507,92.867H48.493c-8.533,0-15.36,7.68-15.36,17.067v290.133
		c0,9.387,6.827,17.067,15.36,17.067h61.44l15.36-85.333H385.56l14.507,85.333h61.44c8.533,0,15.36-7.68,15.36-17.067V109.933
		C476.867,100.547,470.04,92.867,461.507,92.867L461.507,92.867z"/>
	<path style="fill:#FCC309;" d="M7.533,297.667v102.4c0,9.387,7.68,17.067,17.067,17.067h68.267l17.067-85.333h290.133
		l17.067,85.333H485.4c9.387,0,17.067-7.68,17.067-17.067v-102.4H7.533z"/>
	<path style="fill:#FD9808;" d="M485.4,92.867h-23.893c8.533,0,15.36,7.68,15.36,17.067v290.133c0,9.387-6.827,17.067-15.36,17.067
		H485.4c9.387,0,17.067-7.68,17.067-17.067V109.933C502.467,100.547,494.787,92.867,485.4,92.867"/>
	<path style="fill:#FFFFFF;" d="M33.133,400.067V109.933c0-9.387,6.827-17.067,15.36-17.067H24.6
		c-9.387,0-17.067,7.68-17.067,17.067v290.133c0,9.387,7.68,17.067,17.067,17.067h23.893
		C39.96,417.133,33.133,409.453,33.133,400.067"/>
	<path style="fill:#FFDD09;" d="M383,220.867H127c-18.773,0-34.133-15.36-34.133-34.133V92.867h324.267v93.867
		C417.133,205.507,401.773,220.867,383,220.867"/>
	<path style="fill:#FD9808;" d="M423.96,502.467H86.04c-5.12,0-9.387-5.12-8.533-10.24L109.933,331.8h290.133l32.427,160.427
		C433.347,497.347,429.08,502.467,423.96,502.467"/>
	<g>
		<path style="fill:#FCC309;" d="M400.067,502.467H86.04c-5.12,0-9.387-5.12-8.533-10.24L109.933,331.8h266.24L408.6,492.227
			C409.453,497.347,405.187,502.467,400.067,502.467"/>
		<path style="fill:#FCC309;" d="M365.933,92.867H144.067v-76.8c0-5.12,3.413-8.533,8.533-8.533h204.8
			c5.12,0,8.533,3.413,8.533,8.533V92.867z"/>
	</g>
	<path style="fill:#FD9808;" d="M383,7.533h-25.6c5.12,0,8.533,3.413,8.533,8.533v76.8h25.6v-76.8
		C391.533,10.947,388.12,7.533,383,7.533"/>
	<path style="fill:#FFFFFF;" d="M152.6,7.533H127c-5.12,0-8.533,3.413-8.533,8.533v76.8h25.6v-76.8
		C144.067,10.947,147.48,7.533,152.6,7.533"/>
	<polygon style="fill:#33A9F8;" points="280.6,186.733 383,186.733 383,135.533 280.6,135.533 	"/>
	<polygon style="fill:#54C9FD;" points="280.6,186.733 357.4,186.733 357.4,135.533 280.6,135.533 	"/>
	<path d="M383,229.4H127c-23.893,0-42.667-18.773-42.667-42.667V92.867c0-5.12,3.413-8.533,8.533-8.533h324.267
		c5.12,0,8.533,3.413,8.533,8.533v93.867C425.667,210.627,406.893,229.4,383,229.4z M101.4,101.4v85.333
		c0,14.507,11.093,25.6,25.6,25.6h256c14.507,0,25.6-11.093,25.6-25.6V101.4H101.4z"/>
	<path d="M423.96,511H86.04c-5.12,0-10.24-2.56-12.8-5.973c-2.56-3.413-4.267-9.387-3.413-14.507L101.4,330.093
		c0.853-4.267,4.267-6.827,8.533-6.827h290.133c4.267,0,7.68,2.56,8.533,6.827l32.427,160.427c0.853,5.12,0,10.24-3.413,14.507
		C433.347,508.44,429.08,511,423.96,511z M116.76,340.333l-30.72,153.6h337.92l-30.72-153.6H116.76z"/>
	<path d="M391.533,101.4H118.467c-5.12,0-8.533-3.413-8.533-8.533v-76.8C109.933,6.68,117.613-1,127-1h256
		c9.387,0,17.067,7.68,17.067,17.067v76.8C400.067,97.987,396.653,101.4,391.533,101.4z M127,84.333h256V16.067H127V84.333z"/>
	<path d="M383,195.267H280.6c-5.12,0-8.533-3.413-8.533-8.533v-51.2c0-5.12,3.413-8.533,8.533-8.533H383
		c5.12,0,8.533,3.413,8.533,8.533v51.2C391.533,191.853,388.12,195.267,383,195.267z M289.133,178.2h85.333v-34.133h-85.333V178.2z"
		/>
	<path d="M485.4,425.667h-68.267c-4.267,0-7.68-2.56-8.533-6.827l-15.36-78.507H116.76L101.4,418.84
		c-0.853,4.267-4.267,6.827-8.533,6.827H24.6c-14.507,0-25.6-11.093-25.6-25.6V109.933c0-14.507,11.093-25.6,25.6-25.6h460.8
		c14.507,0,25.6,11.093,25.6,25.6v290.133C511,414.573,499.907,425.667,485.4,425.667z M423.96,408.6h61.44
		c5.12,0,8.533-3.413,8.533-8.533V109.933c0-5.12-3.413-8.533-8.533-8.533H24.6c-5.12,0-8.533,3.413-8.533,8.533v290.133
		c0,5.12,3.413,8.533,8.533,8.533h61.44l15.36-78.507c0.853-4.267,4.267-6.827,8.533-6.827h290.133c4.267,0,7.68,2.56,8.533,6.827
		L423.96,408.6z"/>
	<path d="M323.267,383H186.733c-5.12,0-8.533-3.413-8.533-8.533c0-5.12,3.413-8.533,8.533-8.533h136.533
		c5.12,0,8.533,3.413,8.533,8.533C331.8,379.587,328.387,383,323.267,383z"/>
	<path d="M348.867,425.667H161.133c-5.12,0-8.533-3.413-8.533-8.533s3.413-8.533,8.533-8.533h187.733
		c5.12,0,8.533,3.413,8.533,8.533S353.987,425.667,348.867,425.667z"/>
	<path d="M374.467,468.333H135.533c-5.12,0-8.533-3.413-8.533-8.533s3.413-8.533,8.533-8.533h238.933
		c5.12,0,8.533,3.413,8.533,8.533S379.587,468.333,374.467,468.333z"/>
	<path d="M485.4,425.667h-68.267c-4.267,0-7.68-2.56-8.533-6.827l-15.36-78.507H116.76L101.4,418.84
		c-0.853,4.267-4.267,6.827-8.533,6.827H24.6c-14.507,0-25.6-11.093-25.6-25.6v-102.4c0-5.12,3.413-8.533,8.533-8.533h494.933
		c5.12,0,8.533,3.413,8.533,8.533v102.4C511,414.573,499.907,425.667,485.4,425.667z M423.96,408.6h61.44
		c5.12,0,8.533-3.413,8.533-8.533V306.2H16.067v93.867c0,5.12,3.413,8.533,8.533,8.533h61.44l15.36-78.507
		c0.853-4.267,4.267-6.827,8.533-6.827h290.133c4.267,0,7.68,2.56,8.533,6.827L423.96,408.6z"/>
</g>
</svg>